<mxfile host="app.diagrams.net" modified="2023-03-28T10:02:59.533Z" agent="Mozilla/5.0 (Windows NT 10.0; Win64; x64) AppleWebKit/537.36 (KHTML, like Gecko) Chrome/111.0.0.0 Safari/537.36" etag="Atg7VQ-oez3SwndAKbfa" version="21.1.1" type="github" pages="2">
  <diagram id="C5RBs43oDa-KdzZeNtuy" name="Page-1">
    <mxGraphModel dx="1034" dy="477" grid="1" gridSize="10" guides="1" tooltips="1" connect="1" arrows="1" fold="1" page="1" pageScale="1" pageWidth="827" pageHeight="1169" math="0" shadow="0">
      <root>
        <mxCell id="WIyWlLk6GJQsqaUBKTNV-0" />
        <mxCell id="WIyWlLk6GJQsqaUBKTNV-1" parent="WIyWlLk6GJQsqaUBKTNV-0" />
        <mxCell id="WIyWlLk6GJQsqaUBKTNV-2" value="" style="rounded=0;html=1;jettySize=auto;orthogonalLoop=1;fontSize=11;endArrow=block;endFill=0;endSize=8;strokeWidth=1;shadow=0;labelBackgroundColor=none;edgeStyle=orthogonalEdgeStyle;" parent="WIyWlLk6GJQsqaUBKTNV-1" source="WIyWlLk6GJQsqaUBKTNV-3" edge="1">
          <mxGeometry relative="1" as="geometry">
            <mxPoint x="350" y="320" as="targetPoint" />
          </mxGeometry>
        </mxCell>
        <mxCell id="WIyWlLk6GJQsqaUBKTNV-3" value="เริ่มต้น" style="rounded=1;whiteSpace=wrap;html=1;fontSize=12;glass=0;strokeWidth=1;shadow=0;" parent="WIyWlLk6GJQsqaUBKTNV-1" vertex="1">
          <mxGeometry x="290" y="230" width="120" height="40" as="geometry" />
        </mxCell>
        <mxCell id="egdTyyekd6fbYT3UcIHs-2" value="" style="edgeStyle=orthogonalEdgeStyle;rounded=0;orthogonalLoop=1;jettySize=auto;html=1;" parent="WIyWlLk6GJQsqaUBKTNV-1" source="egdTyyekd6fbYT3UcIHs-0" target="egdTyyekd6fbYT3UcIHs-1" edge="1">
          <mxGeometry relative="1" as="geometry" />
        </mxCell>
        <mxCell id="egdTyyekd6fbYT3UcIHs-0" value="ตั้งค่าตัวรับส่งคลื่นวิทยุ" style="rounded=0;whiteSpace=wrap;html=1;" parent="WIyWlLk6GJQsqaUBKTNV-1" vertex="1">
          <mxGeometry x="290" y="320" width="120" height="60" as="geometry" />
        </mxCell>
        <mxCell id="egdTyyekd6fbYT3UcIHs-4" value="" style="edgeStyle=orthogonalEdgeStyle;rounded=0;orthogonalLoop=1;jettySize=auto;html=1;" parent="WIyWlLk6GJQsqaUBKTNV-1" source="egdTyyekd6fbYT3UcIHs-1" target="egdTyyekd6fbYT3UcIHs-3" edge="1">
          <mxGeometry relative="1" as="geometry" />
        </mxCell>
        <mxCell id="egdTyyekd6fbYT3UcIHs-1" value="" style="ellipse;whiteSpace=wrap;html=1;aspect=fixed;" parent="WIyWlLk6GJQsqaUBKTNV-1" vertex="1">
          <mxGeometry x="335" y="410" width="30" height="30" as="geometry" />
        </mxCell>
        <mxCell id="egdTyyekd6fbYT3UcIHs-6" value="" style="edgeStyle=orthogonalEdgeStyle;rounded=0;orthogonalLoop=1;jettySize=auto;html=1;" parent="WIyWlLk6GJQsqaUBKTNV-1" source="egdTyyekd6fbYT3UcIHs-3" target="egdTyyekd6fbYT3UcIHs-5" edge="1">
          <mxGeometry relative="1" as="geometry" />
        </mxCell>
        <mxCell id="egdTyyekd6fbYT3UcIHs-3" value="สุ่มข้อมูลจากเครื่องลูกข่าย ด้วยหมายเลขประจำตัว #n" style="rounded=0;whiteSpace=wrap;html=1;" parent="WIyWlLk6GJQsqaUBKTNV-1" vertex="1">
          <mxGeometry x="290" y="470" width="120" height="60" as="geometry" />
        </mxCell>
        <mxCell id="egdTyyekd6fbYT3UcIHs-9" value="" style="edgeStyle=orthogonalEdgeStyle;rounded=0;orthogonalLoop=1;jettySize=auto;html=1;" parent="WIyWlLk6GJQsqaUBKTNV-1" source="egdTyyekd6fbYT3UcIHs-5" target="egdTyyekd6fbYT3UcIHs-7" edge="1">
          <mxGeometry relative="1" as="geometry" />
        </mxCell>
        <mxCell id="egdTyyekd6fbYT3UcIHs-12" style="edgeStyle=orthogonalEdgeStyle;rounded=0;orthogonalLoop=1;jettySize=auto;html=1;" parent="WIyWlLk6GJQsqaUBKTNV-1" source="egdTyyekd6fbYT3UcIHs-5" edge="1">
          <mxGeometry relative="1" as="geometry">
            <mxPoint x="520" y="610" as="targetPoint" />
          </mxGeometry>
        </mxCell>
        <mxCell id="egdTyyekd6fbYT3UcIHs-5" value="ได้รับการตอบกลับพร้อมข้อมูล" style="rhombus;whiteSpace=wrap;html=1;" parent="WIyWlLk6GJQsqaUBKTNV-1" vertex="1">
          <mxGeometry x="280" y="570" width="140" height="80" as="geometry" />
        </mxCell>
        <mxCell id="egdTyyekd6fbYT3UcIHs-11" style="edgeStyle=orthogonalEdgeStyle;rounded=0;orthogonalLoop=1;jettySize=auto;html=1;entryX=0.5;entryY=1;entryDx=0;entryDy=0;" parent="WIyWlLk6GJQsqaUBKTNV-1" source="egdTyyekd6fbYT3UcIHs-7" target="egdTyyekd6fbYT3UcIHs-10" edge="1">
          <mxGeometry relative="1" as="geometry" />
        </mxCell>
        <mxCell id="egdTyyekd6fbYT3UcIHs-7" value="ปรับปรุงข้อมูลที่เครื่องแม่ข่าย" style="rounded=0;whiteSpace=wrap;html=1;" parent="WIyWlLk6GJQsqaUBKTNV-1" vertex="1">
          <mxGeometry x="290" y="690" width="120" height="60" as="geometry" />
        </mxCell>
        <mxCell id="egdTyyekd6fbYT3UcIHs-15" style="edgeStyle=orthogonalEdgeStyle;rounded=0;orthogonalLoop=1;jettySize=auto;html=1;entryX=1;entryY=0.5;entryDx=0;entryDy=0;" parent="WIyWlLk6GJQsqaUBKTNV-1" source="egdTyyekd6fbYT3UcIHs-10" target="egdTyyekd6fbYT3UcIHs-1" edge="1">
          <mxGeometry relative="1" as="geometry">
            <mxPoint x="370" y="430" as="targetPoint" />
            <Array as="points">
              <mxPoint x="520" y="425" />
            </Array>
          </mxGeometry>
        </mxCell>
        <mxCell id="egdTyyekd6fbYT3UcIHs-10" value="ปรับเพิ่มหมายเลขประจำตัว #n+1" style="rounded=0;whiteSpace=wrap;html=1;" parent="WIyWlLk6GJQsqaUBKTNV-1" vertex="1">
          <mxGeometry x="460" y="470" width="120" height="60" as="geometry" />
        </mxCell>
        <mxCell id="egdTyyekd6fbYT3UcIHs-13" value="ไม่ใช่" style="text;html=1;strokeColor=none;fillColor=none;align=center;verticalAlign=middle;whiteSpace=wrap;rounded=0;" parent="WIyWlLk6GJQsqaUBKTNV-1" vertex="1">
          <mxGeometry x="420" y="580" width="60" height="30" as="geometry" />
        </mxCell>
        <mxCell id="egdTyyekd6fbYT3UcIHs-14" value="ใช่" style="text;html=1;strokeColor=none;fillColor=none;align=center;verticalAlign=middle;whiteSpace=wrap;rounded=0;" parent="WIyWlLk6GJQsqaUBKTNV-1" vertex="1">
          <mxGeometry x="360" y="650" width="60" height="30" as="geometry" />
        </mxCell>
      </root>
    </mxGraphModel>
  </diagram>
  <diagram id="fsbEd1l3-Q0O4GTlmACa" name="Page-2">
    <mxGraphModel dx="1477" dy="600" grid="1" gridSize="10" guides="1" tooltips="1" connect="1" arrows="1" fold="1" page="1" pageScale="1" pageWidth="827" pageHeight="1169" math="0" shadow="0">
      <root>
        <mxCell id="0" />
        <mxCell id="1" parent="0" />
        <mxCell id="zc-R-UygCUo1MXWE3_ed-1" value="" style="rounded=0;html=1;jettySize=auto;orthogonalLoop=1;fontSize=11;endArrow=block;endFill=0;endSize=8;strokeWidth=1;shadow=0;labelBackgroundColor=none;edgeStyle=orthogonalEdgeStyle;" edge="1" parent="1" source="zc-R-UygCUo1MXWE3_ed-2">
          <mxGeometry relative="1" as="geometry">
            <mxPoint x="360" y="220" as="targetPoint" />
          </mxGeometry>
        </mxCell>
        <mxCell id="zc-R-UygCUo1MXWE3_ed-2" value="เริ่มต้น" style="rounded=1;whiteSpace=wrap;html=1;fontSize=12;glass=0;strokeWidth=1;shadow=0;" vertex="1" parent="1">
          <mxGeometry x="300" y="130" width="120" height="40" as="geometry" />
        </mxCell>
        <mxCell id="zc-R-UygCUo1MXWE3_ed-20" value="" style="edgeStyle=orthogonalEdgeStyle;rounded=0;orthogonalLoop=1;jettySize=auto;html=1;" edge="1" parent="1" source="zc-R-UygCUo1MXWE3_ed-4" target="zc-R-UygCUo1MXWE3_ed-19">
          <mxGeometry relative="1" as="geometry" />
        </mxCell>
        <mxCell id="zc-R-UygCUo1MXWE3_ed-4" value="ตั้งค่าตัวรับส่งคลื่นวิทยุ" style="rounded=0;whiteSpace=wrap;html=1;" vertex="1" parent="1">
          <mxGeometry x="300" y="220" width="120" height="60" as="geometry" />
        </mxCell>
        <mxCell id="zc-R-UygCUo1MXWE3_ed-31" value="" style="edgeStyle=orthogonalEdgeStyle;rounded=0;orthogonalLoop=1;jettySize=auto;html=1;" edge="1" parent="1" source="zc-R-UygCUo1MXWE3_ed-11" target="zc-R-UygCUo1MXWE3_ed-15">
          <mxGeometry relative="1" as="geometry" />
        </mxCell>
        <mxCell id="zc-R-UygCUo1MXWE3_ed-34" style="edgeStyle=orthogonalEdgeStyle;rounded=0;orthogonalLoop=1;jettySize=auto;html=1;entryX=1;entryY=0.5;entryDx=0;entryDy=0;" edge="1" parent="1" source="zc-R-UygCUo1MXWE3_ed-11" target="zc-R-UygCUo1MXWE3_ed-25">
          <mxGeometry relative="1" as="geometry">
            <mxPoint x="470" y="640" as="targetPoint" />
            <Array as="points">
              <mxPoint x="500" y="730" />
              <mxPoint x="500" y="638" />
            </Array>
          </mxGeometry>
        </mxCell>
        <mxCell id="zc-R-UygCUo1MXWE3_ed-11" value="ได้รับสัญญาณสุ่ม?" style="rhombus;whiteSpace=wrap;html=1;" vertex="1" parent="1">
          <mxGeometry x="290" y="690" width="140" height="80" as="geometry" />
        </mxCell>
        <mxCell id="zc-R-UygCUo1MXWE3_ed-49" value="" style="edgeStyle=orthogonalEdgeStyle;rounded=0;orthogonalLoop=1;jettySize=auto;html=1;" edge="1" parent="1" source="zc-R-UygCUo1MXWE3_ed-13" target="zc-R-UygCUo1MXWE3_ed-47">
          <mxGeometry relative="1" as="geometry" />
        </mxCell>
        <mxCell id="zc-R-UygCUo1MXWE3_ed-13" value="เพิ่มค่าตัวนับ" style="rounded=0;whiteSpace=wrap;html=1;" vertex="1" parent="1">
          <mxGeometry x="580" y="329" width="120" height="60" as="geometry" />
        </mxCell>
        <mxCell id="zc-R-UygCUo1MXWE3_ed-38" style="edgeStyle=orthogonalEdgeStyle;rounded=0;orthogonalLoop=1;jettySize=auto;html=1;entryX=0;entryY=0.5;entryDx=0;entryDy=0;" edge="1" parent="1" source="zc-R-UygCUo1MXWE3_ed-15" target="zc-R-UygCUo1MXWE3_ed-6">
          <mxGeometry relative="1" as="geometry">
            <mxPoint x="340" y="440" as="targetPoint" />
            <Array as="points">
              <mxPoint x="360" y="940" />
              <mxPoint x="200" y="940" />
              <mxPoint x="200" y="435" />
            </Array>
          </mxGeometry>
        </mxCell>
        <mxCell id="zc-R-UygCUo1MXWE3_ed-15" value="- ส่งข้อมูลไปยังชุดแม่ข่าย&lt;br&gt;- ตั้งค่าตัวนับเป็น 0" style="rounded=0;whiteSpace=wrap;html=1;" vertex="1" parent="1">
          <mxGeometry x="300" y="830" width="120" height="60" as="geometry" />
        </mxCell>
        <mxCell id="zc-R-UygCUo1MXWE3_ed-16" value="ไม่ใช่" style="text;html=1;strokeColor=none;fillColor=none;align=center;verticalAlign=middle;whiteSpace=wrap;rounded=0;" vertex="1" parent="1">
          <mxGeometry x="430" y="510" width="60" height="30" as="geometry" />
        </mxCell>
        <mxCell id="zc-R-UygCUo1MXWE3_ed-17" value="ใช่" style="text;html=1;strokeColor=none;fillColor=none;align=center;verticalAlign=middle;whiteSpace=wrap;rounded=0;" vertex="1" parent="1">
          <mxGeometry x="345" y="585" width="60" height="30" as="geometry" />
        </mxCell>
        <mxCell id="zc-R-UygCUo1MXWE3_ed-24" value="" style="edgeStyle=orthogonalEdgeStyle;rounded=0;orthogonalLoop=1;jettySize=auto;html=1;" edge="1" parent="1" source="zc-R-UygCUo1MXWE3_ed-6" target="zc-R-UygCUo1MXWE3_ed-22">
          <mxGeometry relative="1" as="geometry" />
        </mxCell>
        <mxCell id="zc-R-UygCUo1MXWE3_ed-6" value="" style="ellipse;whiteSpace=wrap;html=1;aspect=fixed;" vertex="1" parent="1">
          <mxGeometry x="345" y="420" width="30" height="30" as="geometry" />
        </mxCell>
        <mxCell id="zc-R-UygCUo1MXWE3_ed-21" value="" style="edgeStyle=orthogonalEdgeStyle;rounded=0;orthogonalLoop=1;jettySize=auto;html=1;" edge="1" parent="1" source="zc-R-UygCUo1MXWE3_ed-19" target="zc-R-UygCUo1MXWE3_ed-6">
          <mxGeometry relative="1" as="geometry" />
        </mxCell>
        <mxCell id="zc-R-UygCUo1MXWE3_ed-19" value="ตั้งนาฬิกาทุกๆ 50 มิลลิ-วินาที" style="rounded=0;whiteSpace=wrap;html=1;" vertex="1" parent="1">
          <mxGeometry x="300" y="320" width="120" height="60" as="geometry" />
        </mxCell>
        <mxCell id="zc-R-UygCUo1MXWE3_ed-29" value="" style="edgeStyle=orthogonalEdgeStyle;rounded=0;orthogonalLoop=1;jettySize=auto;html=1;" edge="1" parent="1" source="zc-R-UygCUo1MXWE3_ed-22" target="zc-R-UygCUo1MXWE3_ed-25">
          <mxGeometry relative="1" as="geometry" />
        </mxCell>
        <mxCell id="zc-R-UygCUo1MXWE3_ed-33" style="edgeStyle=orthogonalEdgeStyle;rounded=0;orthogonalLoop=1;jettySize=auto;html=1;entryX=1;entryY=0.5;entryDx=0;entryDy=0;" edge="1" parent="1" source="zc-R-UygCUo1MXWE3_ed-22" target="zc-R-UygCUo1MXWE3_ed-6">
          <mxGeometry relative="1" as="geometry">
            <mxPoint x="450" y="440" as="targetPoint" />
            <Array as="points">
              <mxPoint x="520" y="535" />
              <mxPoint x="520" y="435" />
            </Array>
          </mxGeometry>
        </mxCell>
        <mxCell id="zc-R-UygCUo1MXWE3_ed-22" value="ถึงเวลาส่งข้อมูล" style="rhombus;whiteSpace=wrap;html=1;" vertex="1" parent="1">
          <mxGeometry x="300" y="495" width="120" height="80" as="geometry" />
        </mxCell>
        <mxCell id="zc-R-UygCUo1MXWE3_ed-30" value="" style="edgeStyle=orthogonalEdgeStyle;rounded=0;orthogonalLoop=1;jettySize=auto;html=1;" edge="1" parent="1" source="zc-R-UygCUo1MXWE3_ed-25" target="zc-R-UygCUo1MXWE3_ed-11">
          <mxGeometry relative="1" as="geometry" />
        </mxCell>
        <mxCell id="zc-R-UygCUo1MXWE3_ed-25" value="" style="ellipse;whiteSpace=wrap;html=1;aspect=fixed;" vertex="1" parent="1">
          <mxGeometry x="345" y="623" width="30" height="30" as="geometry" />
        </mxCell>
        <mxCell id="zc-R-UygCUo1MXWE3_ed-35" value="ไม่ใช่" style="text;html=1;strokeColor=none;fillColor=none;align=center;verticalAlign=middle;whiteSpace=wrap;rounded=0;" vertex="1" parent="1">
          <mxGeometry x="420" y="700" width="60" height="30" as="geometry" />
        </mxCell>
        <mxCell id="zc-R-UygCUo1MXWE3_ed-36" value="ใช่" style="text;html=1;strokeColor=none;fillColor=none;align=center;verticalAlign=middle;whiteSpace=wrap;rounded=0;" vertex="1" parent="1">
          <mxGeometry x="354" y="780" width="60" height="30" as="geometry" />
        </mxCell>
        <mxCell id="zc-R-UygCUo1MXWE3_ed-43" value="" style="edgeStyle=orthogonalEdgeStyle;rounded=0;orthogonalLoop=1;jettySize=auto;html=1;" edge="1" parent="1" source="zc-R-UygCUo1MXWE3_ed-39" target="zc-R-UygCUo1MXWE3_ed-41">
          <mxGeometry relative="1" as="geometry" />
        </mxCell>
        <mxCell id="zc-R-UygCUo1MXWE3_ed-39" value="เริ่มต้น" style="rounded=1;whiteSpace=wrap;html=1;fontSize=12;glass=0;strokeWidth=1;shadow=0;" vertex="1" parent="1">
          <mxGeometry x="580" y="125" width="120" height="40" as="geometry" />
        </mxCell>
        <mxCell id="zc-R-UygCUo1MXWE3_ed-44" value="" style="edgeStyle=orthogonalEdgeStyle;rounded=0;orthogonalLoop=1;jettySize=auto;html=1;" edge="1" parent="1" source="zc-R-UygCUo1MXWE3_ed-41" target="zc-R-UygCUo1MXWE3_ed-13">
          <mxGeometry relative="1" as="geometry" />
        </mxCell>
        <mxCell id="zc-R-UygCUo1MXWE3_ed-51" style="edgeStyle=orthogonalEdgeStyle;rounded=0;orthogonalLoop=1;jettySize=auto;html=1;entryX=1;entryY=0.5;entryDx=0;entryDy=0;" edge="1" parent="1" source="zc-R-UygCUo1MXWE3_ed-41" target="zc-R-UygCUo1MXWE3_ed-47">
          <mxGeometry relative="1" as="geometry">
            <mxPoint x="690" y="455" as="targetPoint" />
            <Array as="points">
              <mxPoint x="740" y="247" />
              <mxPoint x="740" y="445" />
            </Array>
          </mxGeometry>
        </mxCell>
        <mxCell id="zc-R-UygCUo1MXWE3_ed-41" value="ตรวจจับรถผ่าน?" style="rhombus;whiteSpace=wrap;html=1;" vertex="1" parent="1">
          <mxGeometry x="580" y="207" width="120" height="80" as="geometry" />
        </mxCell>
        <mxCell id="zc-R-UygCUo1MXWE3_ed-42" value="จบการทำงาน" style="rounded=1;whiteSpace=wrap;html=1;fontSize=12;glass=0;strokeWidth=1;shadow=0;" vertex="1" parent="1">
          <mxGeometry x="580" y="500" width="120" height="40" as="geometry" />
        </mxCell>
        <mxCell id="zc-R-UygCUo1MXWE3_ed-46" value="ใช่" style="text;html=1;strokeColor=none;fillColor=none;align=center;verticalAlign=middle;whiteSpace=wrap;rounded=0;" vertex="1" parent="1">
          <mxGeometry x="630" y="299" width="60" height="30" as="geometry" />
        </mxCell>
        <mxCell id="zc-R-UygCUo1MXWE3_ed-50" value="" style="edgeStyle=orthogonalEdgeStyle;rounded=0;orthogonalLoop=1;jettySize=auto;html=1;" edge="1" parent="1" source="zc-R-UygCUo1MXWE3_ed-47" target="zc-R-UygCUo1MXWE3_ed-42">
          <mxGeometry relative="1" as="geometry" />
        </mxCell>
        <mxCell id="zc-R-UygCUo1MXWE3_ed-47" value="" style="ellipse;whiteSpace=wrap;html=1;aspect=fixed;" vertex="1" parent="1">
          <mxGeometry x="625" y="430" width="30" height="30" as="geometry" />
        </mxCell>
        <mxCell id="zc-R-UygCUo1MXWE3_ed-52" value="ไม่ใช่" style="text;html=1;strokeColor=none;fillColor=none;align=center;verticalAlign=middle;whiteSpace=wrap;rounded=0;" vertex="1" parent="1">
          <mxGeometry x="690" y="225" width="60" height="30" as="geometry" />
        </mxCell>
        <mxCell id="zc-R-UygCUo1MXWE3_ed-53" value="&lt;font style=&quot;font-size: 24px;&quot;&gt;ชุดลูกข่าย&lt;/font&gt;" style="text;html=1;strokeColor=none;fillColor=none;align=center;verticalAlign=middle;whiteSpace=wrap;rounded=0;" vertex="1" parent="1">
          <mxGeometry x="414" y="30" width="160" height="30" as="geometry" />
        </mxCell>
        <mxCell id="zc-R-UygCUo1MXWE3_ed-54" value="&lt;font style=&quot;font-size: 18px;&quot;&gt;นาฬิกา&lt;/font&gt;" style="text;html=1;strokeColor=none;fillColor=none;align=center;verticalAlign=middle;whiteSpace=wrap;rounded=0;" vertex="1" parent="1">
          <mxGeometry x="606" y="75" width="60" height="30" as="geometry" />
        </mxCell>
      </root>
    </mxGraphModel>
  </diagram>
</mxfile>
